<svg id="Layer_1" data-name="Layer 1" xmlns="http://www.w3.org/2000/svg" viewBox="0 0 1841.47 462.42"><defs><style>.cls-1{fill:#fff;stroke:#fff;stroke-miterlimit:10;stroke-width:10px;}</style></defs><title>amplify</title><path class="cls-1" d="M36.61,312.6Q5,278.42,5,225t31.61-87.79q31.61-34.38,77.11-34.39t69.85,33.75V105.4h73.05V343.78H183.58v-34.6q-26.49,37.6-70.92,37.59T36.61,312.6Zm131.16-44.43q15.8-15.38,15.81-43.58t-15.81-43.36Q152,166.07,131.46,166.06T95.14,181.44Q79.33,196.82,79.34,225t15.81,43.36q15.8,15.17,36.31,15.17T167.77,268.17Z"/><path class="cls-1" d="M393.77,105.4v35q22.64-37.59,72.2-37.6,26.48,0,47.21,12A82.25,82.25,0,0,1,545.43,149a101.94,101.94,0,0,1,34.39-33.54Q601,102.84,627,102.83q43.58,0,69.21,26.92t25.63,74.76V343.78H649.24V214.34q0-23.07-12.18-35.67t-33.54-12.6q-21.37,0-33.54,12.6t-12.18,35.67V343.78H485.19V214.34q0-23.07-12.18-35.67t-33.54-12.6q-21.37,0-33.54,12.6t-12.18,35.67V343.78H320.71V105.4Z"/><path class="cls-1" d="M856.87,136.58q24.35-33.74,69.85-33.75t77.11,34.39q31.61,34.39,31.61,87.79t-31.61,87.58q-31.62,34.18-76.47,34.18t-70.49-37.59V457.42H783.81v-352h73.05Zm88.43,131.8q15.8-15.16,15.81-43.36T945.3,181.44Q929.49,166.06,909,166.06t-36.31,15.17q-15.81,15.17-15.81,43.36t15.81,43.58q15.8,15.38,36.31,15.38T945.3,268.38Z"/><path class="cls-1" d="M1082,343.78V27.64h73.05V343.78Z"/><path class="cls-1" d="M1285.79,78.48a41.24,41.24,0,0,1-30.33,12.39q-17.94,0-30.33-12.39t-12.39-30.55q0-18.15,12.39-30.55a43.33,43.33,0,0,1,60.66,0q12.39,12.4,12.39,30.55T1285.79,78.48Zm-66.65,265.3V105.4h73.05V343.78Z"/><path class="cls-1" d="M1460.52,105.4v60.66h-30.33V343.78h-73.06V166.06h-22.21V105.4h22.21v-9q0-45.28,24.14-66.22t75.83-20.93V71.22q-14.53,0-20.72,5.55t-6.19,19.65v9Z"/><path class="cls-1" d="M1562.2,339.08,1469.5,105.4h82.88l53,155.93,58.1-155.93h76.47l-152.09,352h-76.47Z"/><path class="cls-1" d="M1836.47,303.84q0,16.88-11.53,28.41t-28.41,11.53q-16.88,0-28.41-11.53t-11.53-28.41q0-16.87,11.53-28.41t28.41-11.53q16.87,0,28.41,11.53T1836.47,303.84Z"/></svg>